#N canvas 3 23 504 517 10;
#X obj 111 56 inlet;
#X obj 111 81 t f b;
#X obj 111 130 f;
#X obj 151 128 f;
#X obj 151 160 f;
#X obj 113 193 -;
#X obj 114 230 spigot 1;
#X msg 157 206 0;
#X obj 224 101 loadbang;
#X obj 224 124 f \$1;
#X obj 224 151 sel 2;
#X msg 239 204 1;
#X obj 198 234 spigot 0;
#X obj 198 264 t f b;
#X obj 198 332 f;
#X obj 228 305 f;
#X obj 228 332 f;
#X obj 212 361 -;
#X obj 144 414 outlet;
#X text 173 20 calculates delta / change over time;
#X connect 0 0 1 0;
#X connect 1 0 3 1;
#X connect 1 0 2 0;
#X connect 1 1 3 0;
#X connect 2 0 5 0;
#X connect 3 0 4 0;
#X connect 4 0 5 1;
#X connect 5 0 6 0;
#X connect 5 0 12 0;
#X connect 6 0 18 0;
#X connect 7 0 6 1;
#X connect 8 0 9 0;
#X connect 9 0 10 0;
#X connect 10 0 7 0;
#X connect 10 0 11 0;
#X connect 11 0 12 1;
#X connect 12 0 13 0;
#X connect 13 0 14 0;
#X connect 13 0 15 1;
#X connect 13 1 15 0;
#X connect 14 0 17 0;
#X connect 15 0 16 0;
#X connect 16 0 17 1;
#X connect 17 0 18 0;
