#N canvas 0 23 1411 564 10;
#X obj 63 40 inlet;
#X obj 23 232 s fade1;
#X obj 23 206 line;
#X obj 101 205 line;
#X obj 174 205 line;
#X obj 252 205 line;
#X obj 101 231 s fade2;
#X obj 174 231 s fade3;
#X obj 252 230 s fade4;
#X obj 63 65 t b b;
#X obj 353 132 s preset;
#X text 66 8 fades all out and then all back up - fade time set by
creation arg - sends a preset set by second inlet in between;
#X obj 306 93 f;
#X obj 321 65 inlet;
#X msg 749 175 set 1 \$1;
#X obj 678 124 bng 15 250 50 0 empty empty empty 17 7 0 10 -262144
-1 -1;
#X obj 678 148 f \$1;
#X msg 678 176 set 0 \$1;
#X obj 678 199 send \$0-f1;
#X obj 749 199 send \$0-f2;
#X obj 3 97 r \$0-f1;
#X obj 226 70 r \$0-f2;
#X msg 13 173 0 2000;
#X msg 61 173 1 2000;
#X msg 110 173 0 2000;
#X msg 158 173 1 2000;
#X msg 206 173 0 2000;
#X msg 254 172 1 2000;
#X msg 306 171 0 2000;
#X msg 349 171 1 2000;
#X obj 678 99 loadbang;
#X obj 144 45 delay \$1;
#X obj 116 364 line;
#X msg 117 332 0 2000;
#X msg 164 333 1 2000;
#X obj 221 363 line;
#X obj 221 388 s subfade;
#X msg 222 331 0 2000;
#X msg 268 331 1 2000;
#X obj 116 389 s fade5;
#X connect 0 0 9 0;
#X connect 2 0 1 0;
#X connect 3 0 6 0;
#X connect 4 0 7 0;
#X connect 5 0 8 0;
#X connect 9 0 22 0;
#X connect 9 0 24 0;
#X connect 9 0 26 0;
#X connect 9 0 28 0;
#X connect 9 0 33 0;
#X connect 9 0 37 0;
#X connect 9 1 31 0;
#X connect 12 0 10 0;
#X connect 13 0 12 1;
#X connect 14 0 19 0;
#X connect 15 0 16 0;
#X connect 16 0 14 0;
#X connect 16 0 17 0;
#X connect 17 0 18 0;
#X connect 20 0 22 0;
#X connect 20 0 24 0;
#X connect 20 0 26 0;
#X connect 20 0 28 0;
#X connect 20 0 33 0;
#X connect 20 0 37 0;
#X connect 21 0 29 0;
#X connect 21 0 27 0;
#X connect 21 0 25 0;
#X connect 21 0 23 0;
#X connect 21 0 33 0;
#X connect 21 0 37 0;
#X connect 22 0 2 0;
#X connect 23 0 2 0;
#X connect 24 0 3 0;
#X connect 25 0 3 0;
#X connect 26 0 4 0;
#X connect 27 0 4 0;
#X connect 28 0 5 0;
#X connect 29 0 5 0;
#X connect 30 0 15 0;
#X connect 31 0 29 0;
#X connect 31 0 27 0;
#X connect 31 0 25 0;
#X connect 31 0 23 0;
#X connect 31 0 12 0;
#X connect 31 0 34 0;
#X connect 31 0 38 0;
#X connect 32 0 39 0;
#X connect 33 0 32 0;
#X connect 34 0 32 0;
#X connect 35 0 36 0;
#X connect 37 0 35 0;
#X connect 38 0 35 0;
