#N canvas 120 37 1655 984 10;
#X text 47 42 spatialized playlists;
#X obj 16 289 audio_tables_loader;
#X obj 16 262 bng 15 250 50 0 empty empty empty 17 7 0 10 -262144 -1
-1;
#X obj 16 318 bng 15 250 50 0 empty empty empty 17 7 0 10 -262144 -1
-1;
#X text 42 264 click to reload audio files;
#X text 36 318 audio loaded indicator;
#X obj 51 63 bng 40 250 50 0 empty empty empty 17 7 0 10 -4034 -1 -1
;
#X obj 276 414 elooper~;
#X obj 276 495 output~ 1;
#X obj 371 495 output~ 2;
#X obj 460 495 output~ 3;
#X obj 549 495 output~ 4;
#X obj 276 460 nozip;
#X obj 303 436 r fade1;
#X obj 371 459 nozip;
#X obj 460 457 nozip;
#X obj 549 456 nozip;
#X obj 398 435 r fade2;
#X obj 487 433 r fade3;
#X obj 576 432 r fade4;
#X obj 46 467 bng 15 250 50 0 empty empty empty 17 7 0 10 -262144 -1
-1;
#X obj 46 445 r fade_all;
#X obj 21 180 s fade_all;
#X obj 100 180 s fade_preset;
#X obj 121 445 r fade_preset;
#X obj 224 65 bng 40 250 50 0 empty empty empty 17 7 0 10 -4034 -1
-1;
#X obj 194 181 s fade_all;
#X obj 281 181 s fade_preset;
#N canvas 43 27 1142 435 presets 0;
#X obj 261 338 s player1;
#X obj 324 338 s player2;
#X obj 451 338 s player4;
#X obj 388 338 s player3;
#X msg 59 92 playlist01;
#X msg 231 90 playtrans01;
#X msg 80 120 playlist02;
#X msg 251 117 playtrans02;
#X msg 117 148 playlist03;
#X msg 156 173 playlist04;
#X msg 310 167 playtrans04;
#X msg 281 140 playtrans03;
#X obj 461 -54 inlet;
#X msg 388 102 kobe02;
#X msg 418 125 kobe03;
#X msg 433 148 kobe04;
#X msg 487 118 game01;
#X msg 507 142 game02;
#X msg 567 109 run01;
#X msg 587 133 run02;
#X msg 617 156 run03;
#X msg 640 101 pedestal01;
#X msg 660 126 pedestal02;
#X msg 682 152 pedestal03;
#X msg 783 122 dribblepan;
#X obj 783 327 s player5;
#X msg 860 86 unmatched1;
#X msg 878 110 unmatched2;
#X msg 898 135 unmatched3;
#X msg 913 158 unmatched4;
#X obj 461 -26 select 1 2 3 4 5 6 7 8 9 10;
#X msg 1004 155 afterparty;
#X msg 451 174 silence;
#X msg 520 168 silence;
#X msg 536 195 silence;
#X msg 621 181 silence;
#X msg 696 177 silence;
#X msg 791 153 silence;
#X connect 4 0 0 0;
#X connect 5 0 0 0;
#X connect 6 0 1 0;
#X connect 7 0 1 0;
#X connect 8 0 3 0;
#X connect 9 0 2 0;
#X connect 10 0 2 0;
#X connect 11 0 3 0;
#X connect 12 0 30 0;
#X connect 13 0 0 0;
#X connect 14 0 1 0;
#X connect 15 0 3 0;
#X connect 16 0 1 0;
#X connect 17 0 0 0;
#X connect 17 0 3 0;
#X connect 18 0 0 0;
#X connect 19 0 1 0;
#X connect 20 0 3 0;
#X connect 21 0 0 0;
#X connect 22 0 1 0;
#X connect 23 0 3 0;
#X connect 24 0 25 0;
#X connect 26 0 0 0;
#X connect 27 0 1 0;
#X connect 28 0 3 0;
#X connect 29 0 2 0;
#X connect 30 0 4 0;
#X connect 30 0 6 0;
#X connect 30 0 8 0;
#X connect 30 0 9 0;
#X connect 30 1 5 0;
#X connect 30 1 7 0;
#X connect 30 1 11 0;
#X connect 30 1 10 0;
#X connect 30 2 13 0;
#X connect 30 2 14 0;
#X connect 30 2 15 0;
#X connect 30 2 32 0;
#X connect 30 3 16 0;
#X connect 30 3 17 0;
#X connect 30 3 33 0;
#X connect 30 3 34 0;
#X connect 30 4 18 0;
#X connect 30 4 19 0;
#X connect 30 4 20 0;
#X connect 30 4 35 0;
#X connect 30 5 21 0;
#X connect 30 5 22 0;
#X connect 30 5 23 0;
#X connect 30 5 36 0;
#X connect 30 6 24 0;
#X connect 30 6 37 0;
#X connect 30 7 26 0;
#X connect 30 7 27 0;
#X connect 30 7 28 0;
#X connect 30 7 29 0;
#X connect 30 8 31 0;
#X connect 31 0 0 0;
#X connect 31 0 1 0;
#X connect 31 0 3 0;
#X connect 31 0 2 0;
#X connect 32 0 2 0;
#X connect 33 0 3 0;
#X connect 34 0 2 0;
#X connect 35 0 2 0;
#X connect 36 0 2 0;
#X connect 37 0 2 0;
#X connect 37 0 3 0;
#X connect 37 0 1 0;
#X connect 37 0 0 0;
#X restore 50 580 pd presets;
#X obj 276 391 t b a;
#X obj 371 389 t b a;
#X obj 371 364 r player2;
#X obj 460 387 t b a;
#X obj 549 385 t b a;
#X obj 50 541 r preset;
#X obj 64 562 bng 15 250 50 0 empty empty empty 17 7 0 10 -262144 -1
-1;
#X obj 460 362 r player3;
#X obj 549 360 r player4;
#X obj 276 366 r player1;
#X floatatom 85 561 5 0 0 0 - - -, f 5;
#X obj 51 152 t b f;
#X msg 51 128 1;
#X msg 224 132 2;
#X obj 371 413 elooper~;
#X obj 460 411 elooper~;
#X obj 549 410 elooper~;
#X obj 635 438 loadbang;
#X msg 635 465 0;
#X obj 16 233 loadbang;
#X obj 48 716 r preset;
#X obj 56 742 bng 15 250 50 0 empty empty empty 17 7 0 10 -262144 -1
-1;
#X floatatom 77 742 5 0 0 0 - - -, f 5;
#N canvas 968 95 888 509 osc_sender 0;
#X obj 102 48 inlet;
#X obj 103 123 oscparse;
#X obj 247 140 list prepend send;
#X obj 247 168 list trim;
#X msg 264 194 connect localhost 5000;
#X msg 265 221 disconnect;
#X obj 247 252 netsend -u -b;
#X obj 103 168 print sending_osc;
#X obj 103 145 list trim;
#X text 415 193 <-- enter holoplot IP here;
#X obj 102 75 oscformat presets load;
#X connect 0 0 10 0;
#X connect 1 0 8 0;
#X connect 2 0 3 0;
#X connect 3 0 6 0;
#X connect 4 0 6 0;
#X connect 5 0 6 0;
#X connect 8 0 7 0;
#X connect 10 0 1 0;
#X connect 10 0 2 0;
#X restore 48 828 pd osc_sender;
#X text 44 848 dbl click to enter holoplot IP;
#X obj 46 490 fade_all 2000;
#X msg 48 763 \$1;
#X obj 48 787 list prepend 0;
#X obj 757 614 nozip;
#X obj 784 590 r subfade;
#X obj 1021 445 nozip;
#X obj 1021 374 t b a;
#X obj 1021 399 elooper~;
#X obj 1021 349 r player5;
#X obj 404 64 bng 40 250 50 0 empty empty empty 17 7 0 10 -4034 -1
-1;
#X obj 374 181 s fade_all;
#X obj 453 181 s fade_preset;
#X obj 572 65 bng 40 250 50 0 empty empty empty 17 7 0 10 -4034 -1
-1;
#X obj 542 181 s fade_all;
#X obj 629 181 s fade_preset;
#X obj 404 153 t b f;
#X obj 750 64 bng 40 250 50 0 empty empty empty 17 7 0 10 -4034 -1
-1;
#X obj 720 181 s fade_all;
#X obj 799 181 s fade_preset;
#X obj 923 65 bng 40 250 50 0 empty empty empty 17 7 0 10 -4034 -1
-1;
#X obj 893 181 s fade_all;
#X obj 980 181 s fade_preset;
#X obj 1108 64 bng 40 250 50 0 empty empty empty 17 7 0 10 -4034 -1
-1;
#X obj 1078 181 s fade_all;
#X obj 1157 181 s fade_preset;
#X obj 1281 64 bng 40 250 50 0 empty empty empty 17 7 0 10 -4034 -1
-1;
#X obj 1251 180 s fade_all;
#X obj 1338 180 s fade_preset;
#X obj 1108 153 t b f;
#X msg 404 129 3;
#X msg 572 129 4;
#X msg 750 129 5;
#X msg 923 132 6;
#X msg 1108 129 7;
#X msg 1281 131 8;
#X obj 1458 64 bng 40 250 50 0 empty empty empty 17 7 0 10 -4034 -1
-1;
#X obj 1428 180 s fade_all;
#X obj 1515 180 s fade_preset;
#X msg 1458 131 9;
#X text 216 42 playlist transition;
#X text 400 43 athlete story;
#X text 564 42 in the game;
#X text 746 43 run;
#X text 915 42 pedestals;
#X text 1104 43 dribble pan;
#X text 1273 41 unmatched;
#X text 1450 41 after party;
#X obj 224 153 t b f;
#X obj 572 153 t b f;
#X obj 750 153 t b f;
#X obj 923 153 t b f;
#X obj 1281 152 t b f;
#X obj 1458 152 t b f;
#X obj 1048 421 r fade5;
#X obj 1068 534 output~ 2;
#X obj 1157 534 output~ 3;
#X obj 1246 534 output~ 4;
#X obj 973 534 output~ 1;
#X obj 1320 535 output~ 5;
#X obj 1409 535 output~ 6;
#X obj 1498 535 output~ 7;
#X obj 757 645 output~ 8;
#X obj 1515 461 loadbang;
#X msg 1515 488 0;
#X obj 1224 467 linear_panner_7ch~;
#X floatatom 1418 425 5 0 0 0 - - -, f 5;
#X obj 1399 373 tgl 15 0 empty empty empty 17 7 0 10 -262144 -1 -1
0 1;
#N canvas 327 152 450 300 to_and_fro 0;
#X obj 119 126 metro 5000;
#X obj 119 224 line;
#X msg 119 198 \$1 5000;
#X obj 119 250 outlet;
#X obj 119 101 tgl 15 0 empty empty empty 17 7 0 10 -262144 -1 -1 1
1;
#X obj 81 62 inlet;
#X obj 119 151 random 100;
#X obj 119 174 / 100;
#X connect 0 0 6 0;
#X connect 1 0 3 0;
#X connect 2 0 1 0;
#X connect 4 0 0 0;
#X connect 5 0 4 0;
#X connect 6 0 7 0;
#X connect 7 0 2 0;
#X restore 1304 401 pd to_and_fro;
#X floatatom 1323 427 5 0 0 0 - - -, f 5;
#X obj 1304 375 tgl 15 0 empty empty empty 17 7 0 10 -262144 -1 -1
1 1;
#N canvas 327 152 450 300 back_and_forth 0;
#X obj 119 126 metro 5000;
#X obj 119 200 line;
#X obj 119 150 tgl 15 0 empty empty empty 17 7 0 10 -262144 -1 -1 1
1;
#X msg 119 174 \$1 5000;
#X obj 119 226 outlet;
#X obj 119 101 tgl 15 0 empty empty empty 17 7 0 10 -262144 -1 -1 0
1;
#X obj 81 62 inlet;
#X connect 0 0 2 0;
#X connect 1 0 4 0;
#X connect 2 0 3 0;
#X connect 3 0 1 0;
#X connect 5 0 0 0;
#X connect 6 0 5 0;
#X restore 1399 399 pd back_and_forth;
#X obj 1066 874 shoetest;
#X connect 1 0 3 0;
#X connect 2 0 1 0;
#X connect 6 0 41 0;
#X connect 7 0 12 0;
#X connect 12 0 8 0;
#X connect 12 0 57 0;
#X connect 13 0 12 1;
#X connect 14 0 9 0;
#X connect 14 0 57 0;
#X connect 15 0 10 0;
#X connect 15 0 57 0;
#X connect 16 0 11 0;
#X connect 16 0 57 0;
#X connect 17 0 14 1;
#X connect 18 0 15 1;
#X connect 19 0 16 1;
#X connect 20 0 54 0;
#X connect 21 0 20 0;
#X connect 24 0 54 1;
#X connect 25 0 42 0;
#X connect 29 0 7 0;
#X connect 29 1 7 2;
#X connect 30 0 43 0;
#X connect 30 1 43 2;
#X connect 31 0 30 0;
#X connect 32 0 44 0;
#X connect 32 1 44 2;
#X connect 33 0 45 0;
#X connect 33 1 45 2;
#X connect 34 0 28 0;
#X connect 34 0 35 0;
#X connect 34 0 39 0;
#X connect 36 0 32 0;
#X connect 37 0 33 0;
#X connect 38 0 29 0;
#X connect 40 0 22 0;
#X connect 40 1 23 0;
#X connect 41 0 40 0;
#X connect 42 0 101 0;
#X connect 43 0 14 0;
#X connect 44 0 15 0;
#X connect 45 0 16 0;
#X connect 46 0 47 0;
#X connect 47 0 11 2;
#X connect 47 0 10 2;
#X connect 47 0 9 2;
#X connect 47 0 8 2;
#X connect 48 0 2 0;
#X connect 49 0 50 0;
#X connect 49 0 51 0;
#X connect 49 0 55 0;
#X connect 55 0 56 0;
#X connect 56 0 52 0;
#X connect 57 0 115 0;
#X connect 58 0 57 1;
#X connect 59 0 57 0;
#X connect 59 0 118 0;
#X connect 60 0 61 0;
#X connect 60 1 61 2;
#X connect 61 0 59 0;
#X connect 62 0 60 0;
#X connect 63 0 83 0;
#X connect 66 0 84 0;
#X connect 69 0 64 0;
#X connect 69 1 65 0;
#X connect 70 0 85 0;
#X connect 73 0 86 0;
#X connect 76 0 87 0;
#X connect 79 0 88 0;
#X connect 82 0 77 0;
#X connect 82 1 78 0;
#X connect 83 0 69 0;
#X connect 84 0 102 0;
#X connect 85 0 103 0;
#X connect 86 0 104 0;
#X connect 87 0 82 0;
#X connect 88 0 105 0;
#X connect 89 0 92 0;
#X connect 92 0 106 0;
#X connect 101 0 26 0;
#X connect 101 1 27 0;
#X connect 102 0 67 0;
#X connect 102 1 68 0;
#X connect 103 0 71 0;
#X connect 103 1 72 0;
#X connect 104 0 74 0;
#X connect 104 1 75 0;
#X connect 105 0 80 0;
#X connect 105 1 81 0;
#X connect 106 0 90 0;
#X connect 106 1 91 0;
#X connect 107 0 59 1;
#X connect 116 0 117 0;
#X connect 117 0 114 2;
#X connect 117 0 113 2;
#X connect 117 0 112 2;
#X connect 117 0 110 2;
#X connect 117 0 109 2;
#X connect 117 0 108 2;
#X connect 117 0 111 2;
#X connect 118 0 111 0;
#X connect 118 1 108 0;
#X connect 118 2 109 0;
#X connect 118 3 110 0;
#X connect 118 4 112 0;
#X connect 118 5 113 0;
#X connect 118 6 114 0;
#X connect 120 0 124 0;
#X connect 121 0 122 0;
#X connect 121 0 118 2;
#X connect 123 0 121 0;
#X connect 124 0 118 2;
#X connect 124 0 119 0;
