#N canvas 147 59 450 300 10;
#X obj 44 104 oscparse;
#X obj 44 127 list trim;
#X obj 44 67 netreceive -u -b;
#X msg 44 13 listen 5000;
#X msg 56 40 listen 0;
#X obj 44 151 print osc_rcvd;
#X connect 0 0 1 0;
#X connect 1 0 5 0;
#X connect 2 0 0 0;
#X connect 3 0 2 0;
#X connect 4 0 2 0;
