#N canvas -36 23 1368 855 10;
#X obj 129 93 oscparse;
#X obj 129 70 netreceive -u -b;
#X msg 158 26 listen 9999;
#X obj 129 118 list trim;
#X obj 165 166 route motion;
#X obj 165 191 unpack f f f;
#X floatatom 142 226 5 0 0 0 - - -, f 5;
#X floatatom 199 227 5 0 0 0 - - -, f 5;
#X floatatom 256 226 5 0 0 0 - - -, f 5;
#X text 135 243 pitch;
#X text 198 242 yaw;
#X text 258 245 roll;
#X text 443 88 Shoe is Rightsideup pitch is at 0 roll is at 0 Shoe
is upside down pitch is at around 0 roll is at -180;
#X obj 262 552 dac~;
#X obj 649 324 tgl 40 0 empty empty shoe_was_rolled 0 50 0 10 -260097
-1 -1 1 1;
#X obj 204 531 bob~;
#X obj 146 457 vsl 15 128 0 127 0 0 empty empty empty 0 -9 0 10 -262144
-1 -1 178 1;
#X obj 146 422 cyclone/scale 0 180 0 127;
#X floatatom 168 387 5 0 0 0 - - -, f 5;
#X obj 146 358 abs;
#X obj 202 469 mtof;
#X obj 209 494 sig~;
#X obj 266 504 *~ 0.5;
#X text 87 399 shoe is turning upside down;
#X obj 314 214 s roll;
#X obj 146 330 r roll;
#X obj 604 201 r roll;
#X obj 817 117 soundfiler;
#N canvas 0 22 450 278 (subpatch) 0;
#X array bottom_drone 151201 float 2;
#X coords 0 1 151201 -1 200 140 1;
#X restore 894 112 graph;
#X msg 816 61 read -resize shoe_sounds/drones/bottom_drone.wav bottom_drone
;
#X obj 817 32 loadbang;
#X obj 312 379 bng 15 250 50 0 empty empty empty 17 7 0 10 -262144
-1 -1;
#X obj 312 445 *~ 0.5;
#X obj 312 417 elooper~;
#X msg 357 377 bottom_drone;
#X obj 820 369 soundfiler;
#X obj 820 284 loadbang;
#N canvas 0 22 450 278 (subpatch) 0;
#X array short_woosh 39600 float 2;
#X coords 0 1 39600 -1 200 140 1;
#X restore 919 363 graph;
#X msg 820 313 read -resize shoe_sounds/shortwhoosh/shortwhoosh1.wav
short_woosh;
#X obj 792 593 *~ 0.5;
#X obj 792 565 elooper~;
#X msg 781 506 oneshot;
#X obj 790 622 dac~;
#X msg 845 523 short_woosh;
#X obj 782 480 bng 15 250 50 0 empty empty empty 17 7 0 10 -262144
-1 -1;
#X obj 604 228 abs;
#X floatatom 562 275 5 0 0 0 - - -, f 5;
#X obj 604 259 moses 10;
#X obj 648 288 < 20;
#X obj 649 392 change;
#X obj 247 272 s yaw;
#X obj 912 652 soundfiler;
#X obj 912 567 loadbang;
#N canvas 0 22 450 278 (subpatch) 0;
#X array long_whoosh 138298 float 2;
#X coords 0 1 138298 -1 200 140 1;
#X restore 994 655 graph;
#X msg 912 596 read -resize shoe_sounds/longwhoosh/longwhoosh1.wav
long_whoosh;
#X obj 591 541 tgl 40 0 empty empty shoe_was_rolled 0 50 0 10 -260097
-1 -1 1 1;
#X obj 546 445 abs;
#X floatatom 504 492 5 0 0 0 - - -, f 5;
#X obj 591 609 change;
#X obj 628 755 *~ 0.5;
#X obj 628 727 elooper~;
#X msg 617 668 oneshot;
#X obj 626 784 dac~;
#X obj 618 642 bng 15 250 50 0 empty empty empty 17 7 0 10 -262144
-1 -1;
#X obj 546 418 r yaw;
#X msg 681 685 long_whoosh;
#X obj 546 476 moses 150;
#X obj 590 505 < 180;
#X connect 0 0 3 0;
#X connect 1 0 0 0;
#X connect 2 0 1 0;
#X connect 3 0 4 0;
#X connect 4 0 5 0;
#X connect 5 0 6 0;
#X connect 5 1 7 0;
#X connect 5 1 50 0;
#X connect 5 2 8 0;
#X connect 5 2 24 0;
#X connect 14 0 49 0;
#X connect 15 0 22 0;
#X connect 17 0 16 0;
#X connect 17 0 20 0;
#X connect 19 0 18 0;
#X connect 19 0 17 0;
#X connect 20 0 21 0;
#X connect 21 0 15 1;
#X connect 22 0 13 0;
#X connect 22 0 13 1;
#X connect 25 0 19 0;
#X connect 26 0 45 0;
#X connect 29 0 27 0;
#X connect 30 0 29 0;
#X connect 31 0 33 0;
#X connect 32 0 15 0;
#X connect 33 0 32 0;
#X connect 34 0 33 2;
#X connect 36 0 38 0;
#X connect 38 0 35 0;
#X connect 39 0 42 0;
#X connect 39 0 42 1;
#X connect 40 0 39 0;
#X connect 41 0 40 0;
#X connect 43 0 40 2;
#X connect 44 0 41 0;
#X connect 45 0 46 0;
#X connect 45 0 47 0;
#X connect 47 1 48 0;
#X connect 48 0 14 0;
#X connect 49 0 44 0;
#X connect 52 0 54 0;
#X connect 54 0 51 0;
#X connect 55 0 58 0;
#X connect 56 0 57 0;
#X connect 56 0 66 0;
#X connect 58 0 63 0;
#X connect 59 0 62 0;
#X connect 59 0 62 1;
#X connect 60 0 59 0;
#X connect 61 0 60 0;
#X connect 63 0 61 0;
#X connect 64 0 56 0;
#X connect 65 0 60 2;
#X connect 66 1 67 0;
#X connect 67 0 55 0;
