#N canvas 1 5 1857 979 10;
#X obj 129 93 oscparse;
#X obj 129 70 netreceive -u -b;
#X msg 158 26 listen 9999;
#X obj 129 118 list trim;
#X obj 165 166 route motion;
#X obj 165 191 unpack f f f;
#X floatatom 142 226 5 0 0 0 - - -, f 5;
#X floatatom 199 227 5 0 0 0 - - -, f 5;
#X floatatom 256 226 5 0 0 0 - - -, f 5;
#X text 135 243 pitch;
#X text 198 242 yaw;
#X text 258 245 roll;
#X obj 195 600 dac~;
#X obj 656 358 tgl 40 0 empty empty shoe_was_rolled 0 50 0 10 -260097
-1 -1 1 1;
#X obj 137 579 bob~;
#X obj 79 505 vsl 15 128 0 127 0 0 empty empty empty 0 -9 0 10 -262144
-1 -1 309 1;
#X obj 79 470 cyclone/scale 0 180 0 127;
#X floatatom 101 435 5 0 0 0 - - -, f 5;
#X obj 135 517 mtof;
#X obj 142 542 sig~;
#X obj 199 552 *~ 0.5;
#X text 20 447 shoe is turning upside down;
#X obj 314 214 s roll;
#X obj 78 285 r roll;
#X obj 817 117 soundfiler;
#N canvas 0 50 450 278 (subpatch) 0;
#X array bottom_drone 4e+006 float 2;
#X coords 0 1 4e+006 -1 200 140 1;
#X restore 894 112 graph;
#X obj 817 32 loadbang;
#X obj 245 427 bng 15 250 50 0 empty empty empty 17 7 0 10 -262144
-1 -1;
#X obj 696 600 *~ 0.5;
#X msg 685 513 oneshot;
#X obj 694 629 dac~;
#X obj 684 492 bng 15 250 50 0 empty empty empty 17 7 0 10 -262144
-1 -1;
#X obj 656 426 change;
#X obj 247 272 s yaw;
#X obj 656 163 delta;
#X obj 656 207 change;
#X obj 656 185 int;
#X obj 656 333 spigot;
#X obj 683 289 t b b b;
#X msg 725 312 0;
#X msg 551 292 1;
#X obj 78 411 line;
#X msg 290 428 bottom_drone;
#X msg 817 61 read -resize shoe_sounds/drones/bottomdrone.wav bottom_drone
;
#X obj 1198 119 soundfiler;
#N canvas 0 50 450 278 (subpatch) 0;
#X array top_drone 4e+006 float 2;
#X coords 0 1 4e+006 -1 200 140 1;
#X restore 1275 114 graph;
#X obj 1198 34 loadbang;
#X msg 1198 63 read -resize shoe_sounds/drones/topdrone.wav top_drone
;
#X obj 817 167 s done1;
#X obj 817 144 bng 15 250 50 0 empty empty empty 17 7 0 10 -262144
-1 -1;
#X obj 251 372 r done1;
#X obj 251 397 t b b;
#X obj 188 981 dac~;
#X obj 129 949 bob~;
#X obj 71 875 vsl 15 128 0 127 0 0 empty empty empty 0 -9 0 10 -262144
-1 -1 12391 1;
#X obj 127 887 mtof;
#X obj 134 912 sig~;
#X text 12 817 shoe is turning upside down;
#X obj 237 797 bng 15 250 50 0 empty empty empty 17 7 0 10 -262144
-1 -1;
#X obj 237 863 *~ 0.3;
#X obj 243 767 t b b;
#X obj 243 742 r done2;
#X msg 282 798 top_drone;
#X obj 71 840 cyclone/scale 0 180 127 0;
#X obj 78 365 spigot;
#X obj 78 343 t f f;
#X obj 132 343 > 1;
#X msg 78 388 \$1 200;
#X obj 78 318 abs;
#X floatatom 89 806 5 0 0 0 - - -, f 5;
#X obj 66 665 r roll;
#X obj 66 782 line;
#X obj 66 736 spigot;
#X obj 66 714 t f f;
#X obj 120 714 > 1;
#X msg 66 759 \$1 200;
#X floatatom 130 750 5 0 0 0 - - -, f 5;
#X obj 66 689 abs;
#X obj 245 493 *~ 0.1;
#N canvas 429 132 1224 719 backing_track 0;
#X obj 24 100 bng 15 250 50 0 empty empty empty 17 7 0 10 -262144 -1
-1;
#X obj 30 70 t b b;
#X obj 153 103 bng 15 250 50 0 empty empty empty 17 7 0 10 -262144
-1 -1;
#X obj 159 73 t b b;
#X msg 198 104 dna_bass;
#X obj 502 133 soundfiler;
#N canvas 0 50 450 278 (subpatch) 0;
#X array dna_nobass 4.8384e+006 float 2;
#X coords 0 1 4.8384e+006 -1 200 140 1 0 0;
#X restore 619 152 graph;
#X obj 502 48 loadbang;
#X obj 502 160 bng 15 250 50 0 empty empty empty 17 7 0 10 -262144
-1 -1;
#X obj 502 183 s dna_ready1;
#X msg 69 101 dna_nobass;
#X obj 30 45 r dna_ready1;
#X obj 159 48 r dna_ready2;
#X obj 482 395 soundfiler;
#N canvas 0 50 450 278 (subpatch) 0;
#X array dna_bass 4.8384e+006 float 2;
#X coords 0 1 4.8384e+006 -1 200 140 1 0 0;
#X restore 599 414 graph;
#X obj 482 310 loadbang;
#X obj 482 422 bng 15 250 50 0 empty empty empty 17 7 0 10 -262144
-1 -1;
#X obj 482 445 s dna_ready2;
#X msg 502 77 read -resize -maxsize 1.323e+007 shoe_sounds/beats/dna_nobass.wav
dna_nobass;
#X msg 482 339 read -resize -maxsize 1.323e+007 shoe_sounds/beats/dna_bass.wav
dna_bass;
#X obj 618 28 bng 15 250 50 0 empty empty empty 17 7 0 10 -262144 -1
-1;
#X obj 24 138 elooper~;
#X obj 153 141 elooper~;
#X obj 55 482 soundfiler;
#N canvas 0 50 450 278 (subpatch) 0;
#X array shoebeat 4.8384e+006 float 2;
#X coords 0 1 4.8384e+006 -1 200 140 1 0 0;
#X restore 172 501 graph;
#X obj 55 397 loadbang;
#X obj 55 509 bng 15 250 50 0 empty empty empty 17 7 0 10 -262144 -1
-1;
#X msg 55 426 read -resize -maxsize 1.323e+007 shoe_sounds/beats/shoebeat.wav
shoebeat;
#X obj 55 532 s shoebeat_ready;
#X obj 76 235 dac~ 2;
#X obj 297 103 bng 15 250 50 0 empty empty empty 17 7 0 10 -262144
-1 -1;
#X obj 303 73 t b b;
#X obj 297 169 *~ 0.1;
#X obj 297 141 elooper~;
#X obj 303 48 r shoebeat_ready;
#X msg 342 104 shoebeat;
#X obj 24 166 *~ 0.02;
#X obj 153 169 *~ 0.2;
#X connect 0 0 21 0;
#X connect 1 0 0 0;
#X connect 1 1 10 0;
#X connect 2 0 22 0;
#X connect 3 0 2 0;
#X connect 3 1 4 0;
#X connect 4 0 22 2;
#X connect 5 0 8 0;
#X connect 7 0 18 0;
#X connect 8 0 9 0;
#X connect 10 0 21 2;
#X connect 11 0 1 0;
#X connect 12 0 3 0;
#X connect 13 0 16 0;
#X connect 15 0 19 0;
#X connect 16 0 17 0;
#X connect 18 0 5 0;
#X connect 19 0 13 0;
#X connect 20 0 18 0;
#X connect 20 0 19 0;
#X connect 20 0 27 0;
#X connect 21 0 36 0;
#X connect 22 0 37 0;
#X connect 23 0 26 0;
#X connect 25 0 27 0;
#X connect 26 0 28 0;
#X connect 27 0 23 0;
#X connect 30 0 33 0;
#X connect 31 0 30 0;
#X connect 31 1 35 0;
#X connect 32 0 29 0;
#X connect 33 0 32 0;
#X connect 34 0 31 0;
#X connect 35 0 33 2;
#X connect 36 0 29 0;
#X connect 37 0 29 0;
#X restore 8 205 pd backing_track;
#N canvas 0 50 1907 624 wooshes 0;
#X obj 165 145 soundfiler;
#X obj 165 60 loadbang;
#N canvas 0 50 450 278 (subpatch) 0;
#X array short_woosh 39600 float 2;
#X coords 0 1 39600 -1 200 140 1;
#X restore 264 139 graph;
#X msg 165 89 read -resize shoe_sounds/shortwhoosh/shortwhoosh1.wav
short_woosh;
#X obj 539 141 soundfiler;
#X obj 539 56 loadbang;
#N canvas 0 50 450 278 (subpatch) 0;
#X array short_woosh2 22109 float 2;
#X coords 0 1 22109 -1 200 140 1 0 0;
#X restore 638 135 graph;
#X msg 539 85 read -resize shoe_sounds/shortwhoosh/shortwhoosh2.wav
short_woosh2;
#X obj 895 141 soundfiler;
#X obj 895 56 loadbang;
#N canvas 0 50 450 278 (subpatch) 0;
#X array short_woosh3 32899 float 2;
#X coords 0 1 32899 -1 200 140 1;
#X restore 994 135 graph;
#X obj 1269 137 soundfiler;
#X obj 1269 52 loadbang;
#N canvas 0 50 450 278 (subpatch) 0;
#X array short_woosh4 23256 float 2;
#X coords 0 1 23256 -1 200 140 1 0 0;
#X restore 1368 131 graph;
#X msg 895 85 read -resize shoe_sounds/shortwhoosh/shortwhoosh3.wav
short_woosh3;
#X msg 1269 81 read -resize shoe_sounds/shortwhoosh/shortwhoosh4.wav
short_woosh4;
#X obj 1619 135 soundfiler;
#X obj 1619 50 loadbang;
#N canvas 0 50 450 278 (subpatch) 0;
#X array short_woosh5 23256 float 2;
#X coords 0 1 23256 -1 200 140 1 0 0;
#X restore 1718 129 graph;
#X msg 1619 79 read -resize shoe_sounds/shortwhoosh/shortwhoosh4.wav
short_woosh5;
#X connect 1 0 3 0;
#X connect 3 0 0 0;
#X connect 5 0 7 0;
#X connect 7 0 4 0;
#X connect 9 0 14 0;
#X connect 12 0 15 0;
#X connect 14 0 8 0;
#X connect 15 0 11 0;
#X connect 17 0 19 0;
#X connect 19 0 16 0;
#X restore 887 506 pd wooshes;
#X msg 780 520 short_woosh2;
#X msg 789 543 short_woosh3;
#X msg 799 567 short_woosh4;
#X msg 809 591 short_woosh5;
#X obj 245 465 elooper~;
#X obj 696 572 elooper~;
#X obj 237 835 elooper~;
#X obj 772 444 sel 0 1 2 3 4;
#X obj 772 420 cyclone/counter 0 4;
#X obj 656 467 t b b;
#X floatatom 865 447 5 0 0 0 - - -, f 5;
#X obj 683 263 spigot;
#X obj 683 241 t f f;
#X obj 656 79 r yaw;
#X obj 656 139 abs;
#X msg 770 490 short_woosh2;
#N canvas -1 12 1915 920 voices 0;
#X obj 165 145 soundfiler;
#X obj 165 60 loadbang;
#N canvas 0 50 450 278 (subpatch) 0;
#X array top1 182244 float 2;
#X coords 0 1 182244 -1 200 140 1 0 0;
#X restore 264 139 graph;
#X obj 539 141 soundfiler;
#X obj 539 56 loadbang;
#N canvas 0 50 450 278 (subpatch) 0;
#X array top2 180754 float 2;
#X coords 0 1 180754 -1 200 140 1 0 0;
#X restore 638 135 graph;
#X obj 895 141 soundfiler;
#X obj 895 56 loadbang;
#N canvas 0 50 450 278 (subpatch) 0;
#X array top3 195809 float 2;
#X coords 0 1 195809 -1 200 140 1 0 0;
#X restore 994 135 graph;
#X obj 1269 137 soundfiler;
#X obj 1269 52 loadbang;
#N canvas 0 50 450 278 (subpatch) 0;
#X array top4 165420 float 2;
#X coords 0 1 165420 -1 200 140 1 0 0;
#X restore 1368 131 graph;
#X obj 1619 135 soundfiler;
#X obj 1619 50 loadbang;
#N canvas 0 50 450 278 (subpatch) 0;
#X array top5 204576 float 2;
#X coords 0 1 204576 -1 200 140 1 0 0;
#X restore 1718 129 graph;
#X msg 165 89 read -resize shoe_sounds/delay/top9.wav top1;
#X msg 540 85 read -resize shoe_sounds/delay/top2.wav top2;
#X msg 1269 81 read -resize shoe_sounds/delay/top1.wav top4;
#X msg 895 85 read -resize shoe_sounds/delay/top5.wav top3;
#X obj 172 440 soundfiler;
#X obj 172 355 loadbang;
#N canvas 0 50 450 278 (subpatch) 0;
#X array top6 317285 float 2;
#X coords 0 1 317285 -1 200 140 1 0 0;
#X restore 271 434 graph;
#X obj 528 440 soundfiler;
#X obj 528 355 loadbang;
#N canvas 0 50 450 278 (subpatch) 0;
#X array top7 236560 float 2;
#X coords 0 1 236560 -1 200 140 1 0 0;
#X restore 627 434 graph;
#X obj 902 436 soundfiler;
#X obj 902 351 loadbang;
#N canvas 0 50 450 278 (subpatch) 0;
#X array top8 306424 float 2;
#X coords 0 1 306424 -1 200 140 1 0 0;
#X restore 1001 430 graph;
#X msg 1619 79 read -resize shoe_sounds/delay/top4.wav top5;
#X msg 173 384 read -resize shoe_sounds/delay/top6.wav top6;
#X msg 528 384 read -resize shoe_sounds/delay/top8.wav top7;
#X msg 902 380 read -resize shoe_sounds/delay/top3.wav top8;
#X obj 195 743 soundfiler;
#X obj 195 658 loadbang;
#N canvas 0 50 450 278 (subpatch) 0;
#X array bottom1 217671 float 2;
#X coords 0 1 217671 -1 200 140 1 0 0;
#X restore 294 737 graph;
#X obj 551 743 soundfiler;
#X obj 551 658 loadbang;
#N canvas 0 50 450 278 (subpatch) 0;
#X array bottom2 171696 float 2;
#X coords 0 1 171696 -1 200 140 1 0 0;
#X restore 650 737 graph;
#X obj 925 739 soundfiler;
#X obj 925 654 loadbang;
#N canvas 0 50 450 278 (subpatch) 0;
#X array bottom3 208108 float 2;
#X coords 0 1 208108 -1 200 140 1 0 0;
#X restore 1024 733 graph;
#X obj 1267 732 soundfiler;
#X obj 1267 647 loadbang;
#N canvas 0 50 450 278 (subpatch) 0;
#X array bottom4 189381 float 2;
#X coords 0 1 189381 -1 200 140 1 0 0;
#X restore 1366 726 graph;
#X obj 1592 733 soundfiler;
#X obj 1592 648 loadbang;
#N canvas 0 50 450 278 (subpatch) 0;
#X array bottom5 123232 float 2;
#X coords 0 1 123232 -1 200 140 1 0 0;
#X restore 1691 727 graph;
#X msg 196 687 read -resize shoe_sounds/delay/bottom1.wav bottom1;
#X msg 551 687 read -resize shoe_sounds/delay/bottom2.wav bottom2;
#X msg 1267 676 read -resize shoe_sounds/delay/bottom4.wav bottom4
;
#X msg 1592 677 read -resize shoe_sounds/delay/bottom5.wav bottom5
;
#X msg 925 683 read -resize shoe_sounds/delay/bottom3.wav bottom3;
#X connect 1 0 15 0;
#X connect 4 0 16 0;
#X connect 7 0 18 0;
#X connect 10 0 17 0;
#X connect 13 0 28 0;
#X connect 15 0 0 0;
#X connect 16 0 3 0;
#X connect 17 0 9 0;
#X connect 18 0 6 0;
#X connect 20 0 29 0;
#X connect 23 0 30 0;
#X connect 26 0 31 0;
#X connect 28 0 12 0;
#X connect 29 0 19 0;
#X connect 30 0 22 0;
#X connect 31 0 25 0;
#X connect 33 0 47 0;
#X connect 36 0 48 0;
#X connect 39 0 51 0;
#X connect 42 0 49 0;
#X connect 45 0 50 0;
#X connect 47 0 32 0;
#X connect 48 0 35 0;
#X connect 49 0 41 0;
#X connect 50 0 44 0;
#X connect 51 0 38 0;
#X restore 1140 332 pd voices;
#X floatatom 1215 452 5 0 0 0 - - -, f 5;
#X msg 1112 490 top1;
#X msg 1124 514 top2;
#X msg 1140 539 top3;
#X msg 1152 563 top4;
#X msg 1165 587 top5;
#X msg 1177 611 top6;
#X msg 1193 636 top7;
#X msg 1205 660 top8;
#X obj 1077 638 *~ 0.5;
#X msg 1066 551 oneshot;
#X obj 1075 667 dac~;
#X obj 1065 530 bng 15 250 50 0 empty empty empty 17 7 0 10 -262144
-1 -1;
#X obj 1077 610 elooper~;
#X obj 1088 450 sel 0 1 2 3 4 5 6 7;
#X obj 1088 426 cyclone/counter 0 7;
#X obj 1003 446 spigot;
#X msg 1036 415 0;
#X msg 944 424 1;
#X obj 1003 369 bng 15 250 50 0 empty empty empty 17 7 0 10 -262144
-1 -1;
#X obj 944 401 delay 3000;
#X obj 1003 472 t b b b b;
#X obj 1003 499 delay 500;
#X floatatom 705 754 5 0 0 0 - - -, f 5;
#X obj 636 940 *~ 0.5;
#X msg 625 853 oneshot;
#X obj 634 969 dac~;
#X obj 624 832 bng 15 250 50 0 empty empty empty 17 7 0 10 -262144
-1 -1;
#X obj 636 912 elooper~;
#X obj 562 748 spigot;
#X msg 599 706 0, f 4;
#X obj 562 671 bng 15 250 50 0 empty empty empty 17 7 0 10 -262144
-1 -1;
#X obj 562 774 t b b b b;
#X obj 562 801 delay 500;
#X msg 671 792 bottom1;
#X msg 683 816 bottom2;
#X msg 503 733 1;
#X obj 439 573 > 105;
#X obj 439 603 change;
#X obj 897 663 delay 3000;
#X obj 897 636 t b b;
#X obj 830 698 delay 3000;
#X obj 830 671 t b b;
#X text 893 720 exclusive logic;
#X obj 439 627 sel 1;
#X obj 647 752 sel 0 1;
#X obj 647 728 cyclone/counter 0 1;
#X obj 1450 501 change;
#X obj 1451 457 int;
#X obj 1450 433 abs;
#X obj 1469 364 soundfiler;
#N canvas 0 50 450 278 (subpatch) 0;
#X array scratch 210740 float 2;
#X coords 0 1 210740 -1 200 140 1;
#X restore 1546 359 graph;
#X obj 1469 279 loadbang;
#X msg 1469 308 read -resize shoe_sounds/scratch/scratch1.wav scratch
;
#X obj 1423 648 bng 15 250 50 0 empty empty empty 17 7 0 10 -262144
-1 -1;
#X obj 1381 781 *~ 0.5;
#X msg 1370 711 oneshot;
#X obj 1379 810 dac~;
#X obj 1381 753 elooper~;
#X obj 1422 671 t b b;
#X msg 1430 710 scratch;
#X obj 1538 628 s reset;
#X obj 656 110 spigot;
#X obj 708 79 r reset;
#X obj 1577 651 delay 2000;
#X msg 1524 684 1;
#X obj 411 526 spigot;
#X obj 444 498 r reset;
#X msg 1482 625 0;
#X obj 1416 533 spigot;
#X obj 1499 523 loadbang;
#X msg 1499 556 1;
#X text 1670 559 10 seconds of stillness;
#X obj 1416 589 t b b;
#X obj 1642 593 bng 15 250 50 0 empty empty empty 17 7 0 10 -262144
-1 -1;
#X floatatom 1346 533 5 0 0 0 - - -, f 5;
#X msg 1538 595 0;
#X obj 1595 537 bng 15 250 50 0 empty empty empty 17 7 0 10 -262144
-1 -1;
#X obj 1596 559 delay 10000;
#X obj 1439 399 r roll;
#X obj 1602 761 s fade;
#X obj 192 950 *~;
#X obj 253 952 r fade;
#X obj 1602 736 line;
#X msg 1552 709 1 1000;
#X msg 1674 626 0 2000;
#X obj 551 265 delay 400;
#X obj 191 922 *~ 1;
#X obj 525 585 delay 4000;
#X obj 736 240 > 2;
#X obj 489 693 delay 5000;
#X obj 927 1089 dac~;
#X obj 868 1057 bob~;
#X obj 810 983 vsl 15 128 0 127 0 0 empty empty empty 0 -9 0 10 -262144
-1 -1 11052 1;
#X obj 877 994 mtof;
#X obj 873 1020 sig~;
#X obj 976 905 bng 15 250 50 0 empty empty empty 17 7 0 10 -262144
-1 -1;
#X obj 982 875 t b b;
#X floatatom 769 837 5 0 0 0 - - -, f 5;
#X obj 809 952 line;
#X obj 816 815 abs;
#X obj 976 943 elooper~;
#X obj 977 1032 r fade;
#X obj 1550 120 soundfiler;
#N canvas 0 50 450 278 (subpatch) 0;
#X array drone3 4e+006 float 2;
#X coords 0 1 4e+006 -1 200 140 1;
#X restore 1627 115 graph;
#X obj 1550 35 loadbang;
#X msg 1550 64 read -resize shoe_sounds/drones/drone3.wav drone3;
#X obj 982 850 r done3;
#X obj 1198 145 bng 15 250 50 0 empty empty empty 17 7 0 10 -262144
-1 -1;
#X obj 1198 168 s done2;
#X obj 931 1058 *~ 1;
#X msg 1501 180 \; drone3 normalize;
#X msg 1021 906 drone3;
#X obj 976 971 *~ 0.3;
#X obj 816 791 r yaw;
#X obj 1557 204 bng 15 250 50 0 empty empty empty 17 7 0 10 -262144
-1 -1;
#X obj 1919 125 soundfiler;
#N canvas 0 50 450 278 (subpatch) 0;
#X array drone4 4e+006 float 2;
#X coords 0 1 4e+006 -1 200 140 1;
#X restore 1996 120 graph;
#X obj 1919 40 loadbang;
#X obj 1926 209 bng 15 250 50 0 empty empty empty 17 7 0 10 -262144
-1 -1;
#X msg 1873 161 \; drone4 normalize;
#X msg 1919 69 read -resize shoe_sounds/drones/drone4.wav drone4;
#X obj 1243 1131 dac~;
#X obj 1160 1049 bob~;
#X obj 1102 975 vsl 15 128 0 127 0 0 empty empty empty 0 -9 0 10 -262144
-1 -1 1648 1;
#X obj 1158 987 mtof;
#X obj 1165 1012 sig~;
#X obj 1314 934 bng 15 250 50 0 empty empty empty 17 7 0 10 -262144
-1 -1;
#X obj 1316 904 t b b;
#X floatatom 1180 819 5 0 0 0 - - -, f 5;
#X obj 1113 790 abs;
#X obj 1310 972 elooper~;
#X obj 1296 1072 r fade;
#X obj 1247 1100 *~ 1;
#X obj 1310 1000 *~ 0.3;
#X obj 1113 766 r yaw;
#X obj 1316 879 r done4;
#X obj 1926 232 s done4;
#X obj 1557 227 s done3;
#X msg 1355 935 drone4;
#X obj 1103 879 cyclone/scale 0 180 0 127;
#X obj 1113 826 moses 180;
#X obj 1141 853 cyclone/scale 180 360 127 0;
#X obj 816 839 moses 180;
#X obj 815 874 cyclone/scale 180 360 0 127;
#X obj 771 894 cyclone/scale 0 180 127 0;
#X msg 809 929 \$1 300;
#X obj 1102 933 line;
#X msg 1102 910 \$1 300;
#X obj 929 1030 *~ 0.2;
#X obj 1245 1072 *~ 0.3;
#X connect 0 0 3 0;
#X connect 1 0 0 0;
#X connect 2 0 1 0;
#X connect 3 0 4 0;
#X connect 4 0 5 0;
#X connect 5 0 6 0;
#X connect 5 1 7 0;
#X connect 5 1 33 0;
#X connect 5 2 8 0;
#X connect 5 2 22 0;
#X connect 13 0 32 0;
#X connect 14 0 20 0;
#X connect 16 0 15 0;
#X connect 16 0 18 0;
#X connect 18 0 19 0;
#X connect 19 0 14 1;
#X connect 20 0 12 0;
#X connect 20 0 12 1;
#X connect 23 0 68 0;
#X connect 24 0 49 0;
#X connect 26 0 43 0;
#X connect 27 0 85 0;
#X connect 28 0 30 0;
#X connect 28 0 30 1;
#X connect 29 0 86 0;
#X connect 31 0 29 0;
#X connect 32 0 90 0;
#X connect 32 0 117 0;
#X connect 34 0 36 0;
#X connect 35 0 93 0;
#X connect 36 0 35 0;
#X connect 37 0 13 0;
#X connect 38 0 184 0;
#X connect 38 1 39 0;
#X connect 38 2 37 0;
#X connect 39 0 37 1;
#X connect 40 0 37 1;
#X connect 41 0 17 0;
#X connect 41 0 16 0;
#X connect 41 0 164 0;
#X connect 42 0 85 2;
#X connect 43 0 24 0;
#X connect 44 0 206 0;
#X connect 46 0 47 0;
#X connect 47 0 44 0;
#X connect 49 0 48 0;
#X connect 50 0 51 0;
#X connect 51 0 27 0;
#X connect 51 1 42 0;
#X connect 53 0 185 0;
#X connect 55 0 56 0;
#X connect 56 0 53 1;
#X connect 58 0 87 0;
#X connect 59 0 53 0;
#X connect 60 0 58 0;
#X connect 60 1 62 0;
#X connect 61 0 60 0;
#X connect 62 0 87 2;
#X connect 63 0 54 0;
#X connect 63 0 55 0;
#X connect 64 0 67 0;
#X connect 65 0 64 0;
#X connect 65 1 66 0;
#X connect 66 0 64 1;
#X connect 67 0 41 0;
#X connect 68 0 65 0;
#X connect 70 0 77 0;
#X connect 71 0 69 0;
#X connect 71 0 63 0;
#X connect 72 0 75 0;
#X connect 73 0 72 0;
#X connect 73 1 74 0;
#X connect 74 0 72 1;
#X connect 75 0 71 0;
#X connect 77 0 73 0;
#X connect 78 0 14 0;
#X connect 81 0 86 2;
#X connect 82 0 86 2;
#X connect 83 0 86 2;
#X connect 84 0 86 2;
#X connect 85 0 78 0;
#X connect 86 0 28 0;
#X connect 87 0 59 0;
#X connect 88 0 96 0;
#X connect 88 1 81 0;
#X connect 88 2 82 0;
#X connect 88 3 83 0;
#X connect 88 4 84 0;
#X connect 89 0 88 0;
#X connect 89 0 91 0;
#X connect 90 0 31 0;
#X connect 90 1 89 0;
#X connect 92 0 38 0;
#X connect 93 0 92 0;
#X connect 93 1 187 0;
#X connect 94 0 160 0;
#X connect 95 0 34 0;
#X connect 96 0 86 2;
#X connect 99 0 111 2;
#X connect 100 0 111 2;
#X connect 101 0 111 2;
#X connect 102 0 111 2;
#X connect 103 0 111 2;
#X connect 104 0 111 2;
#X connect 105 0 111 2;
#X connect 106 0 111 2;
#X connect 107 0 109 0;
#X connect 107 0 109 1;
#X connect 108 0 111 0;
#X connect 110 0 108 0;
#X connect 111 0 107 0;
#X connect 112 0 99 0;
#X connect 112 1 100 0;
#X connect 112 2 101 0;
#X connect 112 3 102 0;
#X connect 112 4 103 0;
#X connect 112 5 104 0;
#X connect 112 6 105 0;
#X connect 112 7 106 0;
#X connect 113 0 98 0;
#X connect 113 0 112 0;
#X connect 114 0 119 0;
#X connect 115 0 114 1;
#X connect 116 0 114 1;
#X connect 117 0 114 0;
#X connect 117 0 140 0;
#X connect 118 0 116 0;
#X connect 119 0 120 0;
#X connect 119 1 118 0;
#X connect 119 2 115 0;
#X connect 119 3 113 0;
#X connect 120 0 110 0;
#X connect 122 0 124 0;
#X connect 122 0 124 1;
#X connect 123 0 126 0;
#X connect 125 0 123 0;
#X connect 126 0 122 0;
#X connect 127 0 130 0;
#X connect 128 0 127 1;
#X connect 129 0 127 0;
#X connect 129 0 138 0;
#X connect 130 0 131 0;
#X connect 130 1 188 0;
#X connect 130 2 128 0;
#X connect 130 3 144 0;
#X connect 131 0 125 0;
#X connect 132 0 126 2;
#X connect 133 0 126 2;
#X connect 134 0 127 1;
#X connect 135 0 136 0;
#X connect 136 0 142 0;
#X connect 137 0 118 0;
#X connect 138 0 137 0;
#X connect 138 1 115 0;
#X connect 139 0 134 0;
#X connect 140 0 139 0;
#X connect 140 1 128 0;
#X connect 142 0 129 0;
#X connect 142 0 186 0;
#X connect 143 0 132 0;
#X connect 143 1 133 0;
#X connect 144 0 121 0;
#X connect 144 0 143 0;
#X connect 145 0 167 0;
#X connect 145 0 173 0;
#X connect 145 0 175 0;
#X connect 146 0 145 0;
#X connect 147 0 146 0;
#X connect 150 0 151 0;
#X connect 151 0 148 0;
#X connect 152 0 157 0;
#X connect 152 0 182 0;
#X connect 153 0 155 0;
#X connect 153 0 155 1;
#X connect 154 0 156 0;
#X connect 156 0 153 0;
#X connect 157 0 154 0;
#X connect 157 1 158 0;
#X connect 158 0 156 2;
#X connect 160 0 95 0;
#X connect 161 0 160 1;
#X connect 162 0 163 0;
#X connect 163 0 159 0;
#X connect 164 0 135 0;
#X connect 165 0 164 1;
#X connect 166 0 159 0;
#X connect 166 0 167 1;
#X connect 167 0 171 0;
#X connect 168 0 169 0;
#X connect 169 0 167 1;
#X connect 171 0 152 0;
#X connect 171 1 166 0;
#X connect 171 1 162 0;
#X connect 172 0 183 0;
#X connect 174 0 159 0;
#X connect 175 0 176 0;
#X connect 176 0 172 0;
#X connect 176 0 169 0;
#X connect 176 0 174 0;
#X connect 177 0 147 0;
#X connect 179 0 52 0;
#X connect 179 0 52 1;
#X connect 180 0 179 1;
#X connect 181 0 178 0;
#X connect 182 0 181 0;
#X connect 183 0 181 0;
#X connect 184 0 40 0;
#X connect 185 0 179 0;
#X connect 186 0 129 0;
#X connect 187 0 92 1;
#X connect 188 0 134 0;
#X connect 190 0 247 0;
#X connect 192 0 193 0;
#X connect 193 0 190 1;
#X connect 194 0 199 0;
#X connect 195 0 194 0;
#X connect 195 1 210 0;
#X connect 197 0 191 0;
#X connect 197 0 192 0;
#X connect 198 0 241 0;
#X connect 199 0 211 0;
#X connect 200 0 208 1;
#X connect 201 0 209 0;
#X connect 201 0 213 0;
#X connect 203 0 204 0;
#X connect 204 0 201 0;
#X connect 205 0 195 0;
#X connect 206 0 207 0;
#X connect 208 0 189 0;
#X connect 208 0 189 1;
#X connect 210 0 199 2;
#X connect 211 0 190 0;
#X connect 212 0 198 0;
#X connect 213 0 236 0;
#X connect 214 0 217 0;
#X connect 214 0 218 0;
#X connect 216 0 219 0;
#X connect 217 0 235 0;
#X connect 219 0 214 0;
#X connect 221 0 248 0;
#X connect 223 0 224 0;
#X connect 224 0 221 1;
#X connect 225 0 229 0;
#X connect 226 0 225 0;
#X connect 226 1 237 0;
#X connect 228 0 227 0;
#X connect 228 0 239 0;
#X connect 229 0 232 0;
#X connect 230 0 231 1;
#X connect 231 0 220 0;
#X connect 231 0 220 1;
#X connect 232 0 221 0;
#X connect 233 0 228 0;
#X connect 234 0 226 0;
#X connect 237 0 229 2;
#X connect 238 0 246 0;
#X connect 239 0 238 0;
#X connect 239 1 240 0;
#X connect 240 0 246 0;
#X connect 241 0 243 0;
#X connect 241 1 242 0;
#X connect 242 0 244 0;
#X connect 243 0 244 0;
#X connect 244 0 197 0;
#X connect 245 0 222 0;
#X connect 245 0 223 0;
#X connect 246 0 245 0;
#X connect 247 0 208 0;
#X connect 248 0 231 0;
