#N canvas 348 147 1368 855 10;
#X obj 129 93 oscparse;
#X obj 129 70 netreceive -u -b;
#X msg 158 26 listen 9999;
#X obj 129 118 list trim;
#X obj 165 166 route motion;
#X obj 165 191 unpack f f f;
#X floatatom 142 226 5 0 0 0 - - -, f 5;
#X floatatom 199 227 5 0 0 0 - - -, f 5;
#X floatatom 256 226 5 0 0 0 - - -, f 5;
#X text 135 243 pitch;
#X text 198 242 yaw;
#X text 258 245 roll;
#X obj 262 552 dac~;
#X obj 649 324 tgl 40 0 empty empty shoe_was_rolled 0 50 0 10 -260097
-1 -1 0 1;
#X obj 204 531 bob~;
#X obj 146 457 vsl 15 128 0 127 0 0 empty empty empty 0 -9 0 10 -262144
-1 -1 1051 1;
#X obj 146 422 cyclone/scale 0 180 0 127;
#X floatatom 168 387 5 0 0 0 - - -, f 5;
#X obj 146 358 abs;
#X obj 202 469 mtof;
#X obj 209 494 sig~;
#X obj 266 504 *~ 0.5;
#X text 87 399 shoe is turning upside down;
#X obj 314 214 s roll;
#X obj 145 291 r roll;
#X obj 651 127 r roll;
#X obj 817 117 soundfiler;
#N canvas 0 50 450 278 (subpatch) 0;
#X array bottom_drone 151201 float 2;
#X coords 0 1 151201 -1 200 140 1;
#X restore 894 112 graph;
#X msg 816 61 read -resize shoe_sounds/drones/bottom_drone.wav bottom_drone
;
#X obj 817 32 loadbang;
#X obj 312 379 bng 15 250 50 0 empty empty empty 17 7 0 10 -262144
-1 -1;
#X obj 312 417 elooper~;
#X msg 357 377 bottom_drone;
#X obj 820 369 soundfiler;
#X obj 820 284 loadbang;
#N canvas 0 50 450 278 (subpatch) 0;
#X array short_woosh 39600 float 2;
#X coords 0 1 39600 -1 200 140 1;
#X restore 919 363 graph;
#X msg 820 313 read -resize shoe_sounds/shortwhoosh/shortwhoosh1.wav
short_woosh;
#X obj 792 593 *~ 0.5;
#X obj 792 565 elooper~;
#X msg 781 506 oneshot;
#X obj 790 622 dac~;
#X msg 845 523 short_woosh;
#X obj 782 480 bng 15 250 50 0 empty empty empty 17 7 0 10 -262144
-1 -1;
#X obj 649 392 change;
#X obj 247 272 s yaw;
#X obj 912 652 soundfiler;
#X obj 912 567 loadbang;
#N canvas 0 50 450 278 (subpatch) 0;
#X array long_whoosh 138298 float 2;
#X coords 0 1 138298 -1 200 140 1;
#X restore 994 655 graph;
#X msg 912 596 read -resize shoe_sounds/longwhoosh/longwhoosh1.wav
long_whoosh;
#X obj 592 597 tgl 40 0 empty empty shoe_was_rolled 0 50 0 10 -260097
-1 -1 1 1;
#X obj 592 665 change;
#X obj 629 811 *~ 0.5;
#X obj 629 783 elooper~;
#X msg 618 724 oneshot;
#X obj 627 840 dac~;
#X obj 619 698 bng 15 250 50 0 empty empty empty 17 7 0 10 -262144
-1 -1;
#X obj 546 418 r yaw;
#X obj 651 161 delta;
#X obj 649 205 change;
#X obj 651 183 int;
#X obj 649 229 sel 0;
#X obj 649 299 spigot;
#X obj 675 254 t b b b;
#X msg 718 278 0;
#X msg 544 258 1;
#X obj 576 450 delta;
#X obj 574 494 change;
#X obj 576 472 int;
#X obj 574 518 sel 0;
#X obj 600 543 t b b b;
#X msg 643 567 0;
#X msg 469 547 1;
#X obj 469 520 delay 200;
#X obj 587 571 spigot;
#X msg 682 741 short_woosh;
#X obj 544 231 delay 250;
#X text 350 28 set big slow woosh to trigger if shoe has been resting
for 10 seconds;
#X text 316 78 voice triggers if we're looking at ~75% bottom - goes
through playlist;
#X text 295 127 maybe each swoosh then triggers a short vocal sample
with longer retrigger blocker;
#X obj 145 337 line;
#X msg 145 314 \$1 30;
#X obj 312 445 *~ 0.3;
#X connect 0 0 3 0;
#X connect 1 0 0 0;
#X connect 2 0 1 0;
#X connect 3 0 4 0;
#X connect 4 0 5 0;
#X connect 5 0 6 0;
#X connect 5 1 7 0;
#X connect 5 1 44 0;
#X connect 5 2 8 0;
#X connect 5 2 23 0;
#X connect 13 0 43 0;
#X connect 14 0 21 0;
#X connect 16 0 15 0;
#X connect 16 0 19 0;
#X connect 18 0 17 0;
#X connect 18 0 16 0;
#X connect 19 0 20 0;
#X connect 20 0 14 1;
#X connect 21 0 12 0;
#X connect 21 0 12 1;
#X connect 24 0 80 0;
#X connect 25 0 57 0;
#X connect 28 0 26 0;
#X connect 29 0 28 0;
#X connect 30 0 31 0;
#X connect 31 0 81 0;
#X connect 32 0 31 2;
#X connect 34 0 36 0;
#X connect 36 0 33 0;
#X connect 37 0 40 0;
#X connect 37 0 40 1;
#X connect 38 0 37 0;
#X connect 39 0 38 0;
#X connect 41 0 38 2;
#X connect 42 0 39 0;
#X connect 43 0 42 0;
#X connect 46 0 48 0;
#X connect 48 0 45 0;
#X connect 50 0 55 0;
#X connect 51 0 54 0;
#X connect 51 0 54 1;
#X connect 52 0 51 0;
#X connect 53 0 52 0;
#X connect 55 0 53 0;
#X connect 56 0 65 0;
#X connect 57 0 59 0;
#X connect 58 0 60 0;
#X connect 59 0 58 0;
#X connect 60 1 62 0;
#X connect 61 0 13 0;
#X connect 62 0 75 0;
#X connect 62 1 63 0;
#X connect 62 2 61 0;
#X connect 63 0 61 1;
#X connect 64 0 61 1;
#X connect 65 0 67 0;
#X connect 66 0 68 0;
#X connect 67 0 66 0;
#X connect 68 1 69 0;
#X connect 69 0 72 0;
#X connect 69 1 70 0;
#X connect 69 2 73 0;
#X connect 70 0 73 1;
#X connect 71 0 73 1;
#X connect 72 0 71 0;
#X connect 73 0 49 0;
#X connect 74 0 52 2;
#X connect 75 0 64 0;
#X connect 79 0 18 0;
#X connect 80 0 79 0;
#X connect 81 0 14 0;
